# xmcd
#
# Track frame offsets: 
#        150
#        29715
#        57439
#        85682
#        106747
#        128287
#        154990
#        162925
#        177627
#        192822
#
# Disc length: 2762 seconds
#
# Revision: 1
# Processed by: cddbd v1.5.2PL0 Copyright (c) Steve Scherf et al.
# Submitted via: ExactAudioCopy v1.1
#
DISCID=7c0ac80a
DTITLE=Betsy Pecanins - Recuento [CD 1)
DYEAR=1997
DGENRE=Blues
TTITLE0=I'm A Woman
TTITLE1=Your Slave For Love
TTITLE2=Stormy Monday
TTITLE3=Lo Profundo De Tu Boca
TTITLE4=Nunca Sabrás  Quién Soy
TTITLE5=Necesito Despertar
TTITLE6=You Shook Me
TTITLE7=Caricia Urgente
TTITLE8=Acaso
TTITLE9=Por Un Amor
EXTD=
EXTT0=
EXTT1=
EXTT2=
EXTT3=
EXTT4=
EXTT5=
EXTT6=
EXTT7=
EXTT8=
EXTT9=
PLAYORDER=
